<?xml version="1.0" standalone="no"?>
<!DOCTYPE svg PUBLIC "-//W3C//DTD SVG 20010904//EN"
 "http://www.w3.org/TR/2001/REC-SVG-20010904/DTD/svg10.dtd">
<svg version="1.0" xmlns="http://www.w3.org/2000/svg"
 width="512.000000pt" height="512.000000pt" viewBox="0 0 512.000000 512.000000"
 preserveAspectRatio="xMidYMid meet">

<g transform="translate(0.000000,512.000000) scale(0.100000,-0.100000)"
fill="#000000" stroke="none">
<path d="M3505 4840 c-45 -18 -85 -83 -85 -136 0 -31 1406 -4340 1426 -4372
53 -83 195 -81 249 2 42 63 70 -31 -680 2266 -389 1191 -713 2175 -721 2188
-34 52 -127 78 -189 52z"/>
<path d="M3060 4534 c-86 -43 -283 -116 -392 -144 -49 -13 -88 -27 -88 -31 0
-4 34 -112 76 -241 41 -128 82 -254 90 -280 19 -60 23 -60 178 -8 115 39 396
166 396 180 0 19 -182 560 -188 559 -4 -1 -36 -16 -72 -35z"/>
<path d="M2209 4306 c-2 -3 -105 -9 -229 -15 -124 -6 -246 -14 -272 -17 l-47
-6 13 -41 c7 -23 48 -150 91 -281 l78 -239 241 7 c278 8 376 15 376 28 0 6
-41 135 -91 289 l-91 279 -32 0 c-18 0 -35 -2 -37 -4z"/>
<path d="M1235 4219 c-218 -40 -469 -114 -461 -135 3 -8 44 -134 92 -282 l87
-269 115 39 c123 42 323 92 410 104 28 3 52 9 52 13 2 21 -177 551 -185 550
-5 0 -55 -9 -110 -20z"/>
<path d="M393 3922 c-119 -68 -350 -228 -368 -256 -36 -55 -32 -84 51 -341 43
-135 81 -245 86 -245 4 0 83 51 175 113 93 61 208 134 256 161 48 27 86 54 84
60 -2 6 -44 134 -93 284 -48 149 -92 272 -98 271 -6 0 -48 -22 -93 -47z"/>
<path d="M3345 3683 c-107 -55 -266 -120 -378 -154 -56 -18 -103 -33 -105 -34
-3 -2 147 -470 173 -542 13 -36 555 180 555 221 0 6 -39 131 -87 278 l-88 266
-70 -35z"/>
<path d="M2428 3430 c-42 -4 -170 -11 -283 -15 -147 -5 -205 -10 -202 -19 3
-6 42 -128 88 -270 l84 -259 270 7 c149 4 289 10 311 14 l42 7 -87 270 c-101
309 -76 280 -223 265z"/>
<path d="M1495 3374 c-156 -28 -445 -113 -445 -131 0 -6 158 -496 171 -530 l8
-22 95 34 c113 41 222 70 373 99 l111 21 -88 270 c-101 311 -79 286 -225 259z"/>
<path d="M680 3059 c-121 -72 -420 -281 -420 -293 0 -6 38 -129 85 -273 l86
-263 152 104 c84 57 197 129 252 160 55 32 104 61 108 66 8 7 -162 550 -172
550 -4 -1 -44 -23 -91 -51z"/>
<path d="M3595 2830 c-114 -55 -318 -135 -398 -156 -50 -14 -66 -22 -62 -33 3
-7 45 -135 93 -283 l87 -269 35 6 c126 24 520 188 520 217 0 27 -176 552 -185
554 -6 1 -46 -15 -90 -36z"/>
<path d="M2735 2590 c-33 -4 -162 -11 -287 -15 -154 -6 -228 -12 -228 -19 0
-6 40 -132 88 -281 l88 -270 110 -3 c115 -4 444 14 486 26 l25 7 -91 282 c-80
249 -93 283 -111 281 -11 0 -47 -4 -80 -8z"/>
<path d="M1765 2531 c-184 -33 -442 -113 -439 -137 2 -14 176 -549 180 -553 2
-2 52 12 111 32 139 47 211 65 352 88 63 10 115 20 116 21 1 2 -39 130 -89
285 -80 247 -94 283 -111 282 -11 0 -65 -9 -120 -18z"/>
<path d="M949 2214 c-68 -41 -372 -244 -417 -280 -2 -1 26 -95 62 -207 59
-183 70 -208 101 -235 38 -34 89 -48 132 -37 16 3 73 37 128 74 55 37 139 91
188 120 48 29 87 55 87 58 0 8 -181 563 -184 563 -1 0 -45 -25 -97 -56z"/>
</g>
</svg>
