<svg xmlns="http://www.w3.org/2000/svg" width="36" height="37.187" viewBox="0 0 36 37.187">
  <g id="Group_1" data-name="Group 1" transform="translate(-85 -268)">
    <path id="Icon_material-brush" data-name="Icon material-brush" d="M12.472,23.793a5.477,5.477,0,0,0-5.683,5.261A3.723,3.723,0,0,1,3,32.562a10.091,10.091,0,0,0,7.578,3.508,7.311,7.311,0,0,0,7.578-7.015A5.477,5.477,0,0,0,12.472,23.793ZM38.446,7.359l-2.539-2.35a2,2,0,0,0-2.671,0L16.261,20.723l5.21,4.823L38.446,9.832a1.656,1.656,0,0,0,0-2.473Z" transform="translate(82 263.504)"/>
    <path id="Icon_material-add-circle-outline" data-name="Icon material-add-circle-outline" d="M11.04,6.654H9.578V9.578H6.654V11.04H9.578v2.923H11.04V11.04h2.923V9.578H11.04ZM10.309,3a7.309,7.309,0,1,0,7.309,7.309A7.311,7.311,0,0,0,10.309,3Zm0,13.156a5.847,5.847,0,1,1,5.847-5.847A5.855,5.855,0,0,1,10.309,16.156Z" transform="translate(95.93 287.569)"/>
  </g>
</svg>
