<svg xmlns="http://www.w3.org/2000/svg" viewBox="0 0 18 18">
  <path id="Icon_awesome-save" data-name="Icon awesome-save" d="M17.435,6.185l-3.37-3.37A1.929,1.929,0,0,0,12.7,2.25H1.929A1.929,1.929,0,0,0,0,4.179V18.321A1.929,1.929,0,0,0,1.929,20.25H16.071A1.929,1.929,0,0,0,18,18.321V7.549a1.929,1.929,0,0,0-.565-1.364ZM9,17.679a2.571,2.571,0,1,1,2.571-2.571A2.571,2.571,0,0,1,9,17.679ZM12.857,5.443V9.482a.482.482,0,0,1-.482.482H3.054a.482.482,0,0,1-.482-.482V5.3a.482.482,0,0,1,.482-.482h9.182a.482.482,0,0,1,.341.141l.14.14a.482.482,0,0,1,.141.341Z" transform="translate(0 -2.25)"/>
</svg>
