<svg xmlns="http://www.w3.org/2000/svg" width="36" height="36" viewBox="0 0 36 36">
  <g id="Group_1" data-name="Group 1" transform="translate(-465 -525)">
    <g id="start_2" transform="translate(465 525)">
      <path id="Path_32" data-name="Path 32" d="M.773-485.693a1.3,1.3,0,0,0-.64.681c-.127.305-.134.642-.134,6.586v6.272l.162.345c.26.579.464.658,1.737.7l1.09.039.021,10,.014,9.992-1.343.031-1.343.023-.169.219a.8.8,0,0,0-.169.376.952.952,0,0,0,.316.65c.155.063,35.213.063,35.367,0a.952.952,0,0,0,.316-.65.8.8,0,0,0-.169-.376l-.169-.219-1.343-.023-1.343-.031.014-9.992.021-10,1.09-.039c1.273-.047,1.477-.125,1.744-.7l.155-.345v-6.272c0-5.944-.007-6.28-.134-6.586a1.448,1.448,0,0,0-.366-.509l-.239-.188-17.191-.016C8.613-485.732.83-485.716.773-485.693ZM34.8-478.426v5.991H1.2v-11.981H34.8ZM5.414-461.081v10.023h-1.2V-471.1h1.2Zm23.977,0v10.023H6.609V-471.1H29.391Zm2.391,0v10.023h-1.2V-471.1h1.2Z" transform="translate(0 485.726)"/>
    </g>
    <text id="START" transform="translate(472 535)" font-size="7" font-family="ArialMT, Arial"><tspan x="0" y="0">START</tspan></text>
  </g>
</svg>
