<svg xmlns="http://www.w3.org/2000/svg" viewBox="0 0 22 14">
  <path id="Icon_awesome-eye" data-name="Icon awesome-eye" d="M21.867,10.968a12.363,12.363,0,0,0-21.734,0,1.132,1.132,0,0,0,0,1.064,12.363,12.363,0,0,0,21.734,0A1.132,1.132,0,0,0,21.867,10.968ZM11,16.75A5.379,5.379,0,0,1,5.5,11.5,5.379,5.379,0,0,1,11,6.25a5.379,5.379,0,0,1,5.5,5.25A5.377,5.377,0,0,1,11,16.75ZM11,8a3.8,3.8,0,0,0-.967.138,1.686,1.686,0,0,1-.18,2.268,1.893,1.893,0,0,1-2.376.172,3.416,3.416,0,0,0,1.492,3.815,3.8,3.8,0,0,0,4.264-.129,3.4,3.4,0,0,0,1.237-3.9A3.65,3.65,0,0,0,11,8Z" transform="translate(0 -4.5)"/>
</svg>
